HIERARCHY
ROOT Hips
{
	OFFSET 0.000000 0.000000 0.000000
	CHANNELS 6 Xposition Yposition Zposition Xrotation Yrotation Zrotation
	JOINT LeftUpLeg_virtual
	{
		OFFSET 0.000000 0.000000 0.000000
		CHANNELS 3 Xrotation Yrotation Zrotation
		JOINT LeftUpLeg
		{
			OFFSET 10.205400 -3.823500 0.155100
			CHANNELS 3 Xrotation Yrotation Zrotation
			JOINT LeftLeg
			{
				OFFSET 0.708757 -12.982077 0.567790
				CHANNELS 3 Xrotation Yrotation Zrotation
				JOINT LeftFoot
				{
					OFFSET -0.708756 -10.717838 -2.184338
					CHANNELS 3 Xrotation Yrotation Zrotation
					JOINT LeftToeBase
					{
						OFFSET 0.108149 -7.191104 7.560241
						CHANNELS 3 Xrotation Yrotation Zrotation
						JOINT LeftToe_End
						{
							OFFSET 0.070230 0.081724 4.490308
							CHANNELS 3 Xrotation Yrotation Zrotation
							End Site
							{
								OFFSET 0 0 0
							}
						}
					}
				}
			}
		}
	}
	JOINT RightUpLeg_virtual
	{
		OFFSET 0.000000 0.000000 0.000000
		CHANNELS 3 Xrotation Yrotation Zrotation
		JOINT RightUpLeg
		{
			OFFSET -10.205400 -3.823500 0.005500
			CHANNELS 3 Xrotation Yrotation Zrotation
			JOINT RightLeg
			{
				OFFSET -0.708756 -12.982134 0.610632
				CHANNELS 3 Xrotation Yrotation Zrotation
				JOINT RightFoot
				{
					OFFSET 0.708754 -10.717769 -1.945823
					CHANNELS 3 Xrotation Yrotation Zrotation
					JOINT RightToeBase
					{
						OFFSET -0.108140 -7.191069 7.372968
						CHANNELS 3 Xrotation Yrotation Zrotation
						JOINT RightToe_End
						{
							OFFSET -0.070227 0.081735 4.479403
							CHANNELS 3 Xrotation Yrotation Zrotation
							End Site
							{
								OFFSET 0 0 0
							}
						}
					}
				}
			}
		}
	}
	JOINT Spine_virtual
	{
		OFFSET 0.000000 0.000000 0.000000
		CHANNELS 3 Xrotation Yrotation Zrotation
		JOINT Spine
		{
			OFFSET 0.000000 6.876099 0.125700
			CHANNELS 3 Xrotation Yrotation Zrotation
			JOINT Spine1
			{
				OFFSET 0.000000 5.730043 0.104720
				CHANNELS 3 Xrotation Yrotation Zrotation
				JOINT Spine1_split
				{
					OFFSET 0.000000 5.730043 0.104720
					CHANNELS 3 Xrotation Yrotation Zrotation
					JOINT Spine2
					{
						OFFSET 0.000000 5.730043 0.104720
						CHANNELS 3 Xrotation Yrotation Zrotation
						JOINT Neck_virtual
						{
							OFFSET 0.000000 0.000000 0.000000
							CHANNELS 3 Xrotation Yrotation Zrotation
							JOINT Neck
							{
								OFFSET 0.000000 10.314075 0.188496
								CHANNELS 3 Xrotation Yrotation Zrotation
								JOINT Head
								{
									OFFSET 0.000000 7.643700 -2.377400
									CHANNELS 3 Xrotation Yrotation Zrotation
									JOINT HeadTop_End
									{
										OFFSET 0.000000 43.788605 -13.619600
										CHANNELS 3 Xrotation Yrotation Zrotation
										End Site
										{
											OFFSET 0 0 0
										}
									}
								}
							}
						}
						JOINT LeftShoulder_virtual
						{
							OFFSET 0.000000 0.000000 0.000000
							CHANNELS 3 Xrotation Yrotation Zrotation
							JOINT LeftShoulder
							{
								OFFSET 2.196100 4.412489 0.087492
								CHANNELS 3 Xrotation Yrotation Zrotation
								JOINT LeftShoulder_split
								{
									OFFSET 2.196100 4.412489 0.087492
									CHANNELS 3 Xrotation Yrotation Zrotation
									JOINT LeftArm
									{
										OFFSET 8.771219 -2.981674 -0.026999
										CHANNELS 3 Xrotation Yrotation Zrotation
										JOINT LeftForeArm
										{
											OFFSET 8.512804 0.000000 -0.000000
											CHANNELS 3 Xrotation Yrotation Zrotation
											JOINT LeftHand
											{
												OFFSET 18.484802 0.000000 -0.000000
												CHANNELS 3 Xrotation Yrotation Zrotation
												End Site
												{
													OFFSET 0 0 0
												}
											}
										}
									}
								}
							}
						}
						JOINT RightShoulder_virtual
						{
							OFFSET 0.000000 0.000000 0.000000
							CHANNELS 3 Xrotation Yrotation Zrotation
							JOINT RightShoulder
							{
								OFFSET -2.196100 4.412496 0.070690
								CHANNELS 3 Xrotation Yrotation Zrotation
								JOINT RightShoulder_split
								{
									OFFSET -2.196100 4.412496 0.070690
									CHANNELS 3 Xrotation Yrotation Zrotation
									JOINT RightArm
									{
										OFFSET -8.771282 -2.981682 -0.094208
										CHANNELS 3 Xrotation Yrotation Zrotation
										JOINT RightForeArm
										{
											OFFSET -8.494598 0.000000 0.000000
											CHANNELS 3 Xrotation Yrotation Zrotation
											JOINT RightHand
											{
												OFFSET -18.483803 0.000000 0.000001
												CHANNELS 3 Xrotation Yrotation Zrotation
												End Site
												{
													OFFSET 0 0 0
												}
											}
										}
									}
								}
							}
						}
					}
				}
			}
		}
	}
}
MOTION
Frames: 10
Frame Time: 0.03333333
10.100806 31.940907 -15.123899 0.000000 0.000000 0.000000 125.457010 -63.694683 128.354486 3.527536 43.421797 6.177549 9.809653 -9.840675 -0.079448 -21.277211 30.968747 -25.529401 4.712118 -10.228316 -1.534967 0.000000 0.000000 0.000000 127.825406 -62.316378 130.222529 -55.709260 24.897856 10.474744 20.576213 -11.536496 -2.415824 -3.583127 1.746186 34.327417 5.001237 3.867522 -22.837883 0.000000 0.000000 0.000000 124.205187 -63.298942 125.988672 33.299211 4.622512 8.970114 -7.821976 -0.202232 -0.254060 0.105952 0.057836 0.093003 0.000000 0.000000 0.000000 -8.103255 0.750137 1.727769 -3.907196 21.477574 6.267143 -15.627656 -34.840904 -17.632396 0.000000 0.000000 0.000000 -6.955629 -1.514466 1.132361 2.786767 -12.499942 36.411844 1.594326 -1.089678 0.470209 -63.556925 -2.949954 -49.278241 -42.729182 -58.869250 -36.173460 0.000000 0.000000 0.000000 -9.214332 -1.691877 1.123355 11.853994 -2.839983 -10.324707 -8.729126 0.648299 -2.435968 -12.592429 6.204303 68.035917 -1.109606 22.895870 15.645185 0.000000 0.000000 0.000000 
10.046379 32.024052 -15.242727 0.000000 0.000000 0.000000 125.408598 -64.086449 128.369376 4.069270 43.335447 5.739828 8.993208 -9.684329 -0.284521 -20.572511 30.729042 -25.562464 4.363010 -10.277706 -1.798903 0.000000 0.000000 0.000000 127.709784 -62.725384 130.159500 -55.003209 25.067059 10.317566 20.330044 -11.525340 -2.380100 -3.726780 1.844093 34.103135 5.026404 3.885799 -22.874794 0.000000 0.000000 0.000000 124.249692 -63.744871 126.164017 33.112077 4.613329 8.812363 -7.682752 -0.215835 -0.105576 0.092146 0.114415 0.082693 0.000000 0.000000 0.000000 -8.060243 0.748457 1.789644 -4.445345 20.512788 7.351662 -15.824677 -34.753874 -17.458396 0.000000 0.000000 0.000000 -6.713693 -1.575695 1.343221 2.487690 -11.634323 35.822437 1.566174 -1.284028 0.658711 -63.831355 -2.564590 -49.797874 -41.489018 -58.820599 -34.890317 0.000000 0.000000 0.000000 -9.070776 -1.732750 1.222092 11.820711 -2.862291 -10.419137 -8.905352 0.609643 -2.430494 -12.780594 6.362780 68.733703 -1.348345 22.548789 15.493854 0.000000 0.000000 0.000000 
9.992532 32.098732 -15.350828 0.000000 0.000000 0.000000 125.319956 -64.482347 128.403130 4.643922 43.185725 5.243899 8.210949 -9.528507 -0.481350 -19.889866 30.454659 -25.595191 4.035053 -10.318755 -2.046800 0.000000 0.000000 0.000000 127.538715 -63.136431 130.093575 -54.362367 25.234144 10.127723 20.116360 -11.490646 -2.353581 -3.802793 1.954273 33.918398 5.001468 3.892832 -22.907715 0.000000 0.000000 0.000000 124.259268 -64.170843 126.368936 32.920344 4.611081 8.646488 -7.526103 -0.197853 0.023257 0.086830 0.151749 0.070727 0.000000 0.000000 0.000000 -7.992995 0.776588 1.838669 -4.783638 19.622445 8.245174 -16.129801 -34.572116 -17.509006 0.000000 0.000000 0.000000 -6.458038 -1.606871 1.524335 2.235774 -10.906858 35.131023 1.612703 -1.373143 0.843851 -64.215301 -2.271710 -50.311324 -40.380283 -58.806774 -33.786562 0.000000 0.000000 0.000000 -8.913372 -1.740842 1.310712 11.803736 -2.849535 -10.513163 -9.128650 0.548355 -2.396226 -12.817474 6.369780 69.436004 -1.609701 22.460360 15.382143 0.000000 0.000000 0.000000 
9.938435 32.165409 -15.444899 0.000000 0.000000 0.000000 125.241436 -64.867434 128.495406 5.240808 43.003578 4.707581 7.477740 -9.362821 -0.661182 -19.238078 30.160749 -25.610771 3.740554 -10.350637 -2.281200 0.000000 0.000000 0.000000 127.334056 -63.539501 130.030532 -53.758619 25.385170 9.925633 19.923520 -11.450753 -2.342206 -3.855536 2.041392 33.767868 4.947518 3.880051 -22.921152 0.000000 0.000000 0.000000 124.250498 -64.567493 126.606408 32.686348 4.619925 8.486155 -7.348837 -0.151850 0.128421 0.088394 0.170025 0.062049 0.000000 0.000000 0.000000 -7.887471 0.831202 1.874781 -4.954458 18.819446 8.936515 -16.517380 -34.277728 -17.776284 0.000000 0.000000 0.000000 -6.196716 -1.607489 1.668855 2.038541 -10.359096 34.366309 1.699682 -1.384227 1.004758 -64.604382 -2.140157 -50.773745 -39.439155 -58.848896 -32.915221 0.000000 0.000000 0.000000 -8.742355 -1.718371 1.389422 11.795590 -2.810714 -10.608521 -9.367003 0.514258 -2.346066 -12.693790 6.231849 70.130825 -1.889348 22.651431 15.318992 0.000000 0.000000 0.000000 
9.883531 32.225113 -15.520578 0.000000 0.000000 0.000000 125.202504 -65.225841 128.657514 5.843659 42.813907 4.155348 6.789458 -9.173542 -0.820822 -18.648594 29.863821 -25.559644 3.472584 -10.373398 -2.504416 0.000000 0.000000 0.000000 127.139737 -63.920325 129.998813 -53.177442 25.503745 9.735739 19.746734 -11.428343 -2.348860 -3.941233 2.063125 33.616265 4.891737 3.842563 -22.907927 0.000000 0.000000 0.000000 124.246127 -64.930681 126.866393 32.377846 4.645604 8.351189 -7.150372 -0.088099 0.214319 0.093753 0.169021 0.051391 0.000000 0.000000 0.000000 -7.741029 0.901201 1.904964 -5.019759 18.108136 9.434879 -16.973249 -33.911035 -18.209897 0.000000 0.000000 0.000000 -5.937011 -1.582961 1.778640 1.895150 -9.999978 33.592209 1.815205 -1.293748 1.120377 -64.937300 -2.166608 -51.140755 -38.667221 -58.912875 -32.278419 0.000000 0.000000 0.000000 -8.555053 -1.675670 1.465161 11.786066 -2.772082 -10.702412 -9.592663 0.501042 -2.303263 -12.451009 6.017412 70.779099 -2.158292 23.033300 15.288958 0.000000 0.000000 0.000000 
9.828737 32.277138 -15.581560 0.000000 0.000000 0.000000 125.229743 -65.553157 128.897814 6.421051 42.624601 3.623748 6.156724 -8.969240 -0.953717 -18.113163 29.567985 -25.448172 3.235380 -10.384637 -2.729921 0.000000 0.000000 0.000000 127.000292 -64.269464 130.028838 -52.633171 25.588411 9.569941 19.616879 -11.429166 -2.368483 -4.098393 2.006004 33.439592 4.875021 3.780068 -22.870598 0.000000 0.000000 0.000000 124.231538 -65.264520 127.100873 31.982532 4.689395 8.252566 -6.936809 -0.019329 0.287405 0.093034 0.162717 0.051889 0.000000 0.000000 0.000000 -7.556032 0.974217 1.938533 -5.027677 17.484722 9.772617 -17.476145 -33.493694 -18.751839 0.000000 0.000000 0.000000 -5.689201 -1.542609 1.863408 1.779785 -9.780140 32.855508 1.964347 -1.154021 1.174884 -65.187838 -2.290337 -51.380504 -38.015849 -58.945694 -31.827698 0.000000 0.000000 0.000000 -8.363829 -1.624895 1.542155 11.762405 -2.752073 -10.786568 -9.808343 0.461654 -2.246058 -12.146723 5.795711 71.358401 -2.363746 23.397709 15.241905 0.000000 0.000000 0.000000 
9.775857 32.321667 -15.626574 0.000000 0.000000 0.000000 125.308973 -65.851493 129.185269 6.937742 42.441457 3.144146 5.571301 -8.760128 -1.066680 -17.649274 29.273784 -25.277600 3.045586 -10.382763 -2.975423 0.000000 0.000000 0.000000 126.953901 -64.583605 130.158325 -52.139588 25.653449 9.410566 19.573917 -11.430824 -2.381708 -4.329360 1.886752 33.242520 4.926811 3.701762 -22.822864 0.000000 0.000000 0.000000 124.210323 -65.573737 127.296831 31.507809 4.745814 8.190788 -6.709031 0.040215 0.351525 0.090374 0.158076 0.058581 0.000000 0.000000 0.000000 -7.327565 1.036469 1.977571 -5.042578 16.935980 10.003811 -18.002897 -33.043588 -19.336337 0.000000 0.000000 0.000000 -5.461469 -1.495873 1.931292 1.671056 -9.641384 32.199025 2.118348 -0.991214 1.177353 -65.376959 -2.437646 -51.473101 -37.488098 -58.915327 -31.551270 0.000000 0.000000 0.000000 -8.176482 -1.586552 1.621682 11.713528 -2.788482 -10.835547 -10.063226 0.369324 -2.229028 -11.819597 5.626887 71.874504 -2.458585 23.603624 15.120266 0.000000 0.000000 0.000000 
9.724881 32.358997 -15.657438 0.000000 0.000000 0.000000 125.424417 -66.133211 129.503747 7.366284 42.248644 2.750010 5.032395 -8.566283 -1.168979 -17.265899 28.970548 -25.074873 2.928075 -10.364132 -3.244746 0.000000 0.000000 0.000000 127.011083 -64.864995 130.392136 -51.707206 25.708755 9.232787 19.645926 -11.408856 -2.374321 -4.584064 1.737724 33.055722 5.020420 3.624899 -22.785506 0.000000 0.000000 0.000000 124.163359 -65.873507 127.427684 30.981759 4.806147 8.154028 -6.479754 0.081399 0.404655 0.092238 0.156019 0.064933 0.000000 0.000000 0.000000 -7.059447 1.080732 2.018787 -5.095293 16.471742 10.181105 -18.544449 -32.586494 -19.916318 0.000000 0.000000 0.000000 -5.261582 -1.452581 1.987884 1.553144 -9.532640 31.637337 2.334747 -0.839032 1.140393 -65.584474 -2.554020 -51.458242 -37.069455 -58.814185 -31.427401 0.000000 0.000000 0.000000 -8.005340 -1.572680 1.698334 11.637194 -2.909753 -10.839454 -10.353432 0.224951 -2.219719 -11.478489 5.560630 72.355192 -2.413073 23.624345 14.884379 0.000000 0.000000 0.000000 
9.676770 32.385189 -15.674040 0.000000 0.000000 0.000000 125.538481 -66.415817 129.817075 7.681278 42.035501 2.473005 4.558541 -8.404975 -1.267459 -16.983518 28.638189 -24.855087 2.889285 -10.326893 -3.521619 0.000000 0.000000 0.000000 127.123863 -65.141024 130.690028 -51.324046 25.758619 8.995289 19.867062 -11.347095 -2.335928 -4.821366 1.581271 32.899976 5.131117 3.563402 -22.765582 0.000000 0.000000 0.000000 124.061493 -66.185134 127.483773 30.437939 4.857554 8.120315 -6.258718 0.096583 0.438876 0.098920 0.157902 0.074703 0.000000 0.000000 0.000000 -6.755775 1.102293 2.051298 -5.210039 16.089387 10.362591 -19.076153 -32.138192 -20.445075 0.000000 0.000000 0.000000 -5.093441 -1.419222 2.030365 1.407757 -9.408039 31.142166 2.591851 -0.785452 1.074455 -65.847129 -2.649152 -51.381061 -36.797808 -58.710810 -31.494450 0.000000 0.000000 0.000000 -7.855471 -1.588554 1.755137 11.540926 -3.116319 -10.776239 -10.648112 0.092637 -2.257144 -11.109888 5.594594 72.867320 -2.225471 23.521194 14.516029 0.000000 0.000000 0.000000 
9.632428 32.396568 -15.672884 0.000000 0.000000 0.000000 125.636193 -66.714324 130.118792 7.864361 41.797978 2.335481 4.179409 -8.281469 -1.367579 -16.824026 28.259373 -24.600480 2.938945 -10.272596 -3.780912 0.000000 0.000000 0.000000 127.247476 -65.431423 131.008301 -50.956889 25.791083 8.661475 20.227161 -11.256713 -2.264347 -5.037426 1.405530 32.769144 5.215513 3.525407 -22.756601 0.000000 0.000000 0.000000 123.920464 -66.527777 127.511627 29.909088 4.890713 8.065630 -6.056492 0.087744 0.443457 0.101837 0.153304 0.080835 0.000000 0.000000 0.000000 -6.431032 1.103298 2.060709 -5.381607 15.793057 10.600892 -19.547959 -31.717561 -20.861204 0.000000 0.000000 0.000000 -4.954811 -1.398440 2.049520 1.226253 -9.240834 30.682105 2.951089 -0.816253 0.984036 -66.184492 -2.777546 -51.292149 -36.708012 -58.666913 -31.779228 0.000000 0.000000 0.000000 -7.725359 -1.634607 1.775625 11.429877 -3.403489 -10.660660 -10.965264 0.003286 -2.363729 -10.724458 5.700674 73.429123 -1.934107 23.446255 14.037823 0.000000 0.000000 0.000000 
